# Blender v2.80 (sub 75) OBJ File: ''
# www.blender.org
mtllib lightHouse.mtl
o Cube_Cube.002
v -1.264269 0.024405 1.269663
v -0.455381 13.467636 0.460775
v -1.264269 0.024405 -1.289376
v -0.455381 13.467636 -0.480488
v 1.294770 0.024405 1.269663
v 0.485882 13.467636 0.460775
v 1.294770 0.024405 -1.289376
v 0.485882 13.467636 -0.480488
v -1.794660 0.024405 -0.009856
v -0.984749 1.024405 0.990144
v -0.650469 13.467636 -0.009856
v -0.984749 1.024405 -1.009856
v 0.015251 0.024405 -1.832039
v 0.015251 13.467636 -0.680089
v 1.015251 1.024405 -1.009856
v 1.825161 0.024405 -0.009856
v 0.680970 13.467636 -0.009856
v 1.015251 1.024405 0.990144
v 0.015251 0.024405 1.812326
v 0.015251 13.467636 0.660376
v 0.015251 13.467636 -0.009856
v 0.015251 0.024405 -0.009856
v 0.015251 1.024405 1.414258
v 1.429774 1.024405 -0.009856
v 0.015251 1.024405 -1.433971
v -1.399273 1.024405 -0.009856
v -0.773578 7.859586 0.778972
v -0.773578 7.859586 -0.798685
v 0.804079 7.859586 -0.798685
v 0.804079 7.859586 0.778972
v 0.015251 7.859586 1.113525
v 1.131067 7.859586 -0.009856
v 0.015251 7.859586 -1.133238
v -1.100566 7.859586 -0.009856
v -0.668327 11.266311 0.673721
v -0.668327 11.266311 -0.693434
v 0.698828 11.266311 -0.693434
v 0.698828 11.266311 0.673721
v 0.015251 11.266311 0.963637
v 0.982188 11.266311 -0.009856
v 0.015251 11.266311 -0.983350
v -0.951687 11.266311 -0.009856
v -1.558650 12.969672 1.564044
v -1.558650 12.969672 -1.583757
v 1.589152 12.969672 -1.583757
v 1.589152 12.969672 1.564044
v 0.015251 12.969672 2.231559
v 2.241570 12.969672 -0.009856
v 0.015251 12.969672 -2.251272
v -2.211070 12.969672 -0.009856
v -0.589390 12.406579 0.594784
v -0.589390 12.406579 -0.614497
v 0.619891 12.406579 -0.614497
v 0.619891 12.406579 0.594784
v 0.015251 12.406579 0.851221
v 0.870528 12.406579 -0.009856
v 0.015251 12.406579 -0.870934
v -0.840027 12.406579 -0.009856
v -1.451910 12.117992 -1.477017
v 1.482411 12.117992 -1.477017
v 1.482411 12.117992 1.457304
v 0.015251 12.117992 2.079548
v 2.090583 12.117992 -0.009856
v 0.015251 12.117992 -2.099261
v -2.060082 12.117992 -0.009856
v -1.451910 12.117992 1.457304
v -0.576350 12.901848 0.581744
v -0.576350 12.901848 -0.601457
v 0.606851 12.901848 -0.601457
v 0.606851 12.901848 0.581744
v 0.015251 12.901848 0.832651
v 0.852084 12.901848 -0.009856
v 0.015251 12.901848 -0.852364
v -0.821583 12.901848 -0.009856
vt 0.812333 0.908937
vt 0.812333 0.913626
vt 0.708222 0.913626
vt 0.708222 0.908937
vt 0.604111 0.908937
vt 0.604111 0.913626
vt 0.500000 0.913547
vt 0.500000 0.908937
vt 0.395889 0.908937
vt 0.395889 0.913547
vt 0.291778 0.913547
vt 0.291778 0.908937
vt 0.187667 0.908937
vt 0.187667 0.913626
vt 0.083556 0.913626
vt 0.083556 0.908937
vt 0.395889 0.039429
vt 0.395889 0.061241
vt 0.291778 0.061241
vt 0.291778 0.039429
vt 0.395889 0.942817
vt 0.395889 0.972008
vt 0.291778 0.972008
vt 0.291778 0.942817
vt 0.500000 0.942817
vt 0.500000 0.972008
vt 0.395889 0.017617
vt 0.291778 0.017617
vt 0.500000 0.017617
vt 0.500000 0.039429
vt 0.500000 0.061241
vt 0.187667 0.061241
vt 0.187667 0.112053
vt 0.083556 0.112053
vt 0.083556 0.061241
vt 0.291778 0.112053
vt 0.395889 0.112053
vt 0.500000 0.112053
vt 0.604111 0.061241
vt 0.604111 0.112053
vt 0.708222 0.061241
vt 0.708222 0.112053
vt 0.812333 0.061241
vt 0.812333 0.112053
vt 0.916444 0.061241
vt 0.916444 0.112053
vt 0.916444 0.908937
vt 0.916444 0.913626
vt 0.916444 0.573338
vt 0.812333 0.573338
vt 0.708222 0.573338
vt 0.604111 0.573338
vt 0.500000 0.573338
vt 0.395889 0.573338
vt 0.291778 0.573338
vt 0.187667 0.573338
vt 0.083556 0.573338
vt 0.916444 0.609891
vt 0.812333 0.609891
vt 0.708222 0.609891
vt 0.604111 0.609891
vt 0.500000 0.609891
vt 0.395889 0.609891
vt 0.291778 0.609891
vt 0.187667 0.609891
vt 0.083556 0.609891
vt 0.916444 0.748029
vt 0.916444 0.843167
vt 0.812333 0.843167
vt 0.812333 0.748029
vt 0.708222 0.748029
vt 0.708222 0.843167
vt 0.604111 0.843167
vt 0.604111 0.748029
vt 0.500000 0.748029
vt 0.500000 0.843167
vt 0.395889 0.843167
vt 0.395889 0.748029
vt 0.291778 0.748029
vt 0.291778 0.843167
vt 0.187667 0.843167
vt 0.187667 0.748029
vt 0.083556 0.843167
vt 0.083556 0.748029
vt 0.916444 0.904408
vt 0.812333 0.904408
vt 0.708222 0.904408
vt 0.604111 0.904408
vt 0.500000 0.904408
vt 0.395889 0.904408
vt 0.291778 0.904408
vt 0.187667 0.904409
vt 0.083556 0.904408
vn -0.8897 0.2691 -0.3688
vn 0.3760 0.2699 -0.8865
vn 0.8897 0.2691 0.3688
vn -0.3760 0.2699 0.8865
vn 0.0000 -1.0000 0.0000
vn 0.0000 1.0000 0.0000
vn -0.3666 0.3441 0.8644
vn 0.3666 0.3441 0.8644
vn 0.3760 0.2699 0.8865
vn 0.8677 0.3431 0.3597
vn 0.8677 0.3431 -0.3597
vn 0.8897 0.2691 -0.3688
vn 0.3666 0.3441 -0.8644
vn -0.3666 0.3441 -0.8644
vn -0.3760 0.2699 -0.8865
vn -0.8677 0.3431 -0.3597
vn -0.8677 0.3431 0.3597
vn -0.8897 0.2691 0.3688
vn -0.9230 0.0403 0.3826
vn -0.3901 0.0405 -0.9199
vn 0.9230 0.0403 -0.3826
vn 0.3901 0.0405 0.9199
vn -0.3901 0.0405 0.9199
vn 0.9230 0.0403 0.3826
vn 0.3901 0.0405 -0.9199
vn -0.9230 0.0403 -0.3826
vn -0.9116 -0.1616 0.3779
vn -0.3853 -0.1621 -0.9084
vn 0.9116 -0.1616 -0.3779
vn 0.3853 -0.1621 0.9084
vn -0.3853 -0.1621 0.9084
vn 0.9116 -0.1616 0.3779
vn 0.3853 -0.1621 -0.9084
vn -0.9116 -0.1616 -0.3779
vn 0.3753 0.9138 -0.1556
vn 0.1582 0.9143 0.3730
vn -0.3753 0.9138 0.1556
vn -0.1582 0.9143 -0.3730
vn 0.1582 0.9143 -0.3730
vn -0.3753 0.9138 -0.1556
vn -0.1582 0.9143 0.3730
vn 0.3753 0.9138 0.1556
vn -0.5907 -0.7688 -0.2449
vn 0.2492 -0.7699 -0.5876
vn 0.5907 -0.7688 0.2449
vn -0.2492 -0.7699 0.5876
vn 0.2492 -0.7699 0.5876
vn 0.5907 -0.7688 -0.2449
vn -0.2492 -0.7699 -0.5876
vn -0.5907 -0.7688 0.2449
vn -0.9232 0.0344 0.3827
vn -0.3902 0.0345 -0.9201
vn 0.9232 0.0344 -0.3827
vn 0.3902 0.0345 0.9201
vn -0.3902 0.0345 0.9201
vn 0.9232 0.0344 0.3827
vn 0.3902 0.0345 -0.9201
vn -0.9232 0.0344 -0.3827
usemtl Material.001
s off
f 74/1/1 11/2/1 4/3/1 68/4/1
f 73/5/2 14/6/2 8/7/2 69/8/2
f 72/9/3 17/10/3 6/11/3 70/12/3
f 71/13/4 20/14/4 2/15/4 67/16/4
f 22/17/5 16/18/5 5/19/5 19/20/5
f 21/21/6 11/22/6 2/23/6 20/24/6
f 17/10/6 21/21/6 20/24/6 6/11/6
f 8/7/6 14/25/6 21/21/6 17/10/6
f 14/25/6 4/26/6 11/22/6 21/21/6
f 9/27/5 22/17/5 19/20/5 1/28/5
f 3/29/5 13/30/5 22/17/5 9/27/5
f 13/30/5 7/31/5 16/18/5 22/17/5
f 19/32/7 23/33/7 10/34/7 1/35/7
f 5/19/8 18/36/8 23/33/8 19/32/8
f 70/12/9 6/11/9 20/14/9 71/13/9
f 16/18/10 24/37/10 18/36/10 5/19/10
f 7/31/11 15/38/11 24/37/11 16/18/11
f 69/8/12 8/7/12 17/10/12 72/9/12
f 13/39/13 25/40/13 15/38/13 7/31/13
f 3/41/14 12/42/14 25/40/14 13/39/14
f 68/4/15 4/3/15 14/6/15 73/5/15
f 9/43/16 26/44/16 12/42/16 3/41/16
f 1/45/17 10/46/17 26/44/17 9/43/17
f 67/47/18 2/48/18 11/2/18 74/1/18
f 10/46/19 27/49/19 34/50/19 26/44/19
f 12/42/20 28/51/20 33/52/20 25/40/20
f 15/38/21 29/53/21 32/54/21 24/37/21
f 18/36/22 30/55/22 31/56/22 23/33/22
f 23/33/23 31/56/23 27/57/23 10/34/23
f 24/37/24 32/54/24 30/55/24 18/36/24
f 25/40/25 33/52/25 29/53/25 15/38/25
f 26/44/26 34/50/26 28/51/26 12/42/26
f 27/49/19 35/58/19 42/59/19 34/50/19
f 28/51/20 36/60/20 41/61/20 33/52/20
f 29/53/21 37/62/21 40/63/21 32/54/21
f 30/55/22 38/64/22 39/65/22 31/56/22
f 31/56/23 39/65/23 35/66/23 27/57/23
f 32/54/24 40/63/24 38/64/24 30/55/24
f 33/52/25 41/61/25 37/62/25 29/53/25
f 34/50/26 42/59/26 36/60/26 28/51/26
f 66/67/27 43/68/27 50/69/27 65/70/27
f 59/71/28 44/72/28 49/73/28 64/74/28
f 60/75/29 45/76/29 48/77/29 63/78/29
f 61/79/30 46/80/30 47/81/30 62/82/30
f 62/82/31 47/81/31 43/83/31 66/84/31
f 63/78/32 48/77/32 46/80/32 61/79/32
f 64/74/33 49/73/33 45/76/33 60/75/33
f 65/70/34 50/69/34 44/72/34 59/71/34
f 43/68/35 51/85/35 58/86/35 50/69/35
f 44/72/36 52/87/36 57/88/36 49/73/36
f 45/76/37 53/89/37 56/90/37 48/77/37
f 46/80/38 54/91/38 55/92/38 47/81/38
f 47/81/39 55/92/39 51/93/39 43/83/39
f 48/77/40 56/90/40 54/91/40 46/80/40
f 49/73/41 57/88/41 53/89/41 45/76/41
f 50/69/42 58/86/42 52/87/42 44/72/42
f 42/59/43 65/70/43 59/71/43 36/60/43
f 41/61/44 64/74/44 60/75/44 37/62/44
f 40/63/45 63/78/45 61/79/45 38/64/45
f 39/65/46 62/82/46 66/84/46 35/66/46
f 38/64/47 61/79/47 62/82/47 39/65/47
f 37/62/48 60/75/48 63/78/48 40/63/48
f 36/60/49 59/71/49 64/74/49 41/61/49
f 35/58/50 66/67/50 65/70/50 42/59/50
f 51/85/51 67/47/51 74/1/51 58/86/51
f 52/87/52 68/4/52 73/5/52 57/88/52
f 53/89/53 69/8/53 72/9/53 56/90/53
f 54/91/54 70/12/54 71/13/54 55/92/54
f 55/92/55 71/13/55 67/16/55 51/93/55
f 56/90/56 72/9/56 70/12/56 54/91/56
f 57/88/57 73/5/57 69/8/57 53/89/57
f 58/86/58 74/1/58 68/4/58 52/87/58
